<?xml version="1.0" encoding="utf-8"?>
<?xml-stylesheet type="text/xsl" href="rss1.xsl"?>
<rss version="2.0" xmlns:atom="http://www.w3.org/2005/Atom" xmlns:content="http://purl.org/rss/1.0/modules/content/" xmlns:dc="http://purl.org/dc/elements/1.1/" xmlns:media="http://search.yahoo.com/mrss/">
<channel>
 <title>Getty</title>
 <link>http://www.gettyimg.com/</link>
 <atom:link href="http://www.gettyimg.com/" rel="self" type="application/rss+xml" />

 
                <item>
                <title><![CDATA[【Albums (lossy)】iTunes Plus - Jesse McCartney - Right Where You Want Me (Italian Version)]]></title>
                <link><![CDATA[https://sharemania.us/threads/jesse-mccartney-right-where-you-want-me-italian-version.224968/]]></link>
                <description><![CDATA[<article>
<blockquote class="messageText SelectQuoteContainer ugc baseHtml">
<img src="https://is1-ssl.mzstatic.com/image/thumb/Music4/v4/c1/6b/25/c16b2545-1e00-9c5d-802b-bfc347b5e680/00094639720453.jpg/1200x1200bf-60.jpg" class="bbCodeImage LbImage" alt="[​IMG]" data-url="https://is1-ssl.mzstatic.com/image/thumb/Music4/v4/c1/6b/25/c16b2545-1e00-9c5d-802b-bfc347b5e680/00094639720453.jpg/1200x1200bf-60.jpg" style=""> <br>
<br>
<b>Tracklist<br>
</b><br>
<i>1 Right Where You Want Me<br>
2 Just So You Know<br>
3 Blow Your Mind<br>
4 Right Back In The Water<br>
5 Anybody<br>
6 Tell Her<br>
7 Just Go<br>
8 Can't Let You Go<br>
9 We Can Go Anywhere<br>
10 Feelin' You<br>
11 Invincible<br>
12 Daddy's Little Girl<br>
13 Running Away<br>
14 Feels Like Sunday </i><br>
<div class="bbCodeBlock bbCodeVfcHH HiddenContent">
<div class="attribution type">Hidden Content:</div>
<blockquote>You must either reply or click 'Like' to see the hidden information contained here.</blockquote>
</div>
<div class="messageTextEndMarker">&nbsp;</div>
</blockquote>
</article>]]></description>
                <author><![CDATA[HeyitsmeDanii]]></author>
                </item>

                
                <item>
                <title><![CDATA[【Apple Music】WEB-RiP - Loud Luxury, Two Friends &amp; Bebe Rexha - If Only I (1080p)]]></title>
                <link><![CDATA[https://sharemania.us/threads/loud-luxury-two-friends-bebe-rexha-if-only-i-1080p.224970/]]></link>
                <description><![CDATA[<article>
<blockquote class="messageText SelectQuoteContainer ugc baseHtml">
<img src="https://i.imgur.com/90DBzUd.jpg" class="bbCodeImage LbImage" alt="[​IMG]" data-url="https://i.imgur.com/90DBzUd.jpg" style=""><br>
<br>
<div class="bbCodeBlock bbCodeCode">
<div class="type">Code:</div>
<pre>General
Complete name                  : C:\Users\asus\Desktop\Loud Luxury, Two Friends &amp; Bebe Rexha - If Only I.mp4
Format                         : MPEG-4
Format profile                 : Base Media
Codec ID                       : isom (isom/iso2/avc1/mp41)
File size                      : 184 MiB
Duration                       : 2 min 34 s
Overall bit rate               : 9 960 kb/s
Frame rate                     : 23.976 FPS
Movie name                     : If Only I
Performer                      : Loud Luxury, Two Friends &amp; Bebe Rexha
Genre                          : Dance
ContentType                    : Music Video
Recorded date                  : 2023-06-23 07:00:00 UTC
Writing application            : Lavf57.29.101
Copyright                      : ℗ 2023 Armada Music B.V. / Helix Records, a division of Payday Records Inc.

Video
ID                             : 1
Format                         : AVC
Format/Info                    : Advanced Video Codec
Format profile                 : High@L4
Format settings                : CABAC / 4 Ref Frames
Format settings, CABAC         : Yes
Format settings, Reference fra : 4 frames
Codec ID                       : avc1
Codec ID/Info                  : Advanced Video Coding
Duration                       : 2 min 34 s
Bit rate                       : 9 690 kb/s
Width                          : 1 920 pixels
Height                         : 1 080 pixels
Display aspect ratio           : 16:9
Frame rate mode                : Constant
Frame rate                     : 23.976 (24000/1001) FPS
Color space                    : YUV
Chroma subsampling             : 4:2:0
Bit depth                      : 8 bits
Scan type                      : Progressive
Bits/(Pixel*Frame)             : 0.195
Stream size                    : 179 MiB (97%)
Color range                    : Limited
Color primaries                : BT.709
Transfer characteristics       : BT.709
Matrix coefficients            : BT.709
Codec configuration box        : avcC

Audio
ID                             : 2
Format                         : AAC LC
Format/Info                    : Advanced Audio Codec Low Complexity
Codec ID                       : mp4a-40-2
Duration                       : 2 min 34 s
Duration_LastFrame             : -10 ms
Bit rate mode                  : Constant
Bit rate                       : 265 kb/s
Channel(s)                     : 2 channels
Channel layout                 : L R
Sampling rate                  : 48.0 kHz
Frame rate                     : 46.875 FPS (1024 SPF)
Compression mode               : Lossy
Stream size                    : 4.93 MiB (3%)
Default                        : Yes
Alternate group                : 1

</pre>
</div>
<div class="bbCodeBlock bbCodeVfcHH HiddenContent">
<div class="attribution type">Hidden Content:</div>
<blockquote>You must either reply or click 'Like' to see the hidden information contained here.</blockquote>
</div>
<div class="messageTextEndMarker">&nbsp;</div>
</blockquote>
</article>]]></description>
                <author><![CDATA[vitalya3]]></author>
                </item>

                
                <item>
                <title><![CDATA[【Requests】[REQ AUD] - Sevdaliza - Ride or Die (flac)]]></title>
                <link><![CDATA[https://sharemania.us/threads/sevdaliza-ride-or-die-flac.224969/]]></link>
                <description><![CDATA[<article>
<blockquote class="messageText SelectQuoteContainer ugc baseHtml">
Can someone please post sevdaliza ride or die in the highest quality possible please
<div class="messageTextEndMarker">&nbsp;</div>
</blockquote>
</article>]]></description>
                <author><![CDATA[Enayetb]]></author>
                </item>

                
                <item>
                <title><![CDATA[【Albums (lossy)】iTunes Plus - Jesse McCartney - Beautiful Soul (Germany Version)]]></title>
                <link><![CDATA[https://sharemania.us/threads/jesse-mccartney-beautiful-soul-germany-version.224971/]]></link>
                <description><![CDATA[<article>
<blockquote class="messageText SelectQuoteContainer ugc baseHtml">
<img src="https://t2.genius.com/unsafe/498x0/https%3A%2F%2Fimages.genius.com%2Fa5777fe693cf0de8e9fe391f8e611bdf.1000x1000x1.jpg" class="bbCodeImage LbImage" alt="[​IMG]" data-url="https://t2.genius.com/unsafe/498x0/https%3A%2F%2Fimages.genius.com%2Fa5777fe693cf0de8e9fe391f8e611bdf.1000x1000x1.jpg" style=""> <br>
<br>
<b>Year:</b> <i>2006</i><br>
<b>Genre: </b><i>Pop, Soul, Ballad.</i><br>
<b>Label: </b><i>Hollywood Records.</i><br>
<br>
<b>Tracklist</b><br>
<br>
<b><i>1 She's No You <br>
2 Beautiful Soul <br>
3 Get Your Shine On <br>
4 Take Your Sweet Time <br>
5 Without U <br>
6 Why Don't You Kiss Her? <br>
7 That Was Then<br>
8 Come To Me <br>
9 What's Your Name? <br>
10 Because You Live</i></b> <i><span style="font-size: 15px">(2005 version) (Video Version)</span></i><br>
<b><i>11 Why Is Love So Hard To Find? <br>
12 The Stupid Things <br>
13 Good Life <br>
14 Best Day Of My Life <br>
<div class="bbCodeBlock bbCodeVfcHH HiddenContent">
<div class="attribution type">Hidden Content:</div>
<blockquote>You must either reply or click 'Like' to see the hidden information contained here.</blockquote>
</div></i></b>
<div class="messageTextEndMarker">&nbsp;</div>
</blockquote>
</article>]]></description>
                <author><![CDATA[HeyitsmeDanii]]></author>
                </item>

                
                <item>
                <title><![CDATA[【Apple Music】WEB-RiP - Rita Ora - Girls (feat. Cardi B, Bebe Rexha &amp; Charli XCX) (1080p)]]></title>
                <link><![CDATA[https://sharemania.us/threads/rita-ora-girls-feat-cardi-b-bebe-rexha-charli-xcx-1080p.224972/]]></link>
                <description><![CDATA[<article>
<blockquote class="messageText SelectQuoteContainer ugc baseHtml">
<img src="https://i.imgur.com/43WR7ze.jpg" class="bbCodeImage LbImage" alt="[​IMG]" data-url="https://i.imgur.com/43WR7ze.jpg" style=""><br>
<br>
<div class="bbCodeBlock bbCodeCode">
<div class="type">Code:</div>
<pre>General
Complete name                  : C:\Users\asus\Desktop\Rita Ora - Girls (feat. Cardi B, Bebe Rexha &amp; Charli XCX).mp4
Format                         : MPEG-4
Format profile                 : Base Media
Codec ID                       : isom (isom/iso2/avc1/mp41)
File size                      : 302 MiB
Duration                       : 3 min 41 s
Overall bit rate               : 11.4 Mb/s
Frame rate                     : 25.000 FPS
Movie name                     : Girls (feat. Cardi B, Bebe Rexha &amp; Charli XCX)
Performer                      : Rita Ora
Genre                          : Pop
ContentType                    : Music Video
Recorded date                  : 2018-06-06 07:00:00 UTC
Writing application            : Lavf57.29.101
Copyright                      : ℗ 2018 Atlantic Records UK, a Warner Music Group company

Video
ID                             : 1
Format                         : AVC
Format/Info                    : Advanced Video Codec
Format profile                 : High@L4
Format settings                : CABAC / 4 Ref Frames
Format settings, CABAC         : Yes
Format settings, Reference fra : 4 frames
Codec ID                       : avc1
Codec ID/Info                  : Advanced Video Coding
Duration                       : 3 min 41 s
Bit rate                       : 11.2 Mb/s
Width                          : 1 920 pixels
Height                         : 904 pixels
Display aspect ratio           : 2.124
Frame rate mode                : Constant
Frame rate                     : 25.000 FPS
Color space                    : YUV
Chroma subsampling             : 4:2:0
Bit depth                      : 8 bits
Scan type                      : Progressive
Bits/(Pixel*Frame)             : 0.258
Stream size                    : 295 MiB (98%)
Color range                    : Limited
Color primaries                : BT.709
Transfer characteristics       : BT.709
Matrix coefficients            : BT.709
Codec configuration box        : avcC

Audio
ID                             : 2
Format                         : AAC LC
Format/Info                    : Advanced Audio Codec Low Complexity
Codec ID                       : mp4a-40-2
Duration                       : 3 min 41 s
Bit rate mode                  : Constant
Bit rate                       : 256 kb/s
Channel(s)                     : 2 channels
Channel layout                 : L R
Sampling rate                  : 48.0 kHz
Frame rate                     : 46.875 FPS (1024 SPF)
Compression mode               : Lossy
Stream size                    : 6.75 MiB (2%)
Default                        : Yes
Alternate group                : 1

</pre>
</div>
<div class="bbCodeBlock bbCodeVfcHH HiddenContent">
<div class="attribution type">Hidden Content:</div>
<blockquote>You must either reply or click 'Like' to see the hidden information contained here.</blockquote>
</div>
<div class="messageTextEndMarker">&nbsp;</div>
</blockquote>
</article>]]></description>
                <author><![CDATA[vitalya3]]></author>
                </item>

                </channel></rss>